<svg width="148" height="149" viewBox="0 0 148 149" fill="none" xmlns="http://www.w3.org/2000/svg">
<path fill-rule="evenodd" clip-rule="evenodd" d="M23.4599 33.9441C14.7827 43.5849 9.93689 58.1839 9.94107 74.6767C9.94474 88.7572 13.3367 100.565 20.3242 110.819C29.1955 123.837 43.6282 134.509 57.1915 138.081C61.7878 139.29 68.0272 139.935 68.9526 139.295C70.5471 138.192 62.5531 108.506 54.7725 86.6371C48.994 70.3957 43.0721 57.2856 35.9513 44.9703C31.5888 37.4254 27.2385 31.3704 26.1797 31.3704C25.9578 31.3704 24.7342 32.5289 23.4599 33.9441Z" fill="#FAF7F8"/>
<path fill-rule="evenodd" clip-rule="evenodd" d="M138.801 46.4945C137.313 47.6095 135.588 48.8704 134.968 49.2963L133.842 50.0711L134.898 53.0473C138.593 63.4613 139.566 77.3056 137.358 88.0425C132.803 110.185 117.341 127.931 95.7334 135.816C89.9386 137.93 83.4973 139.395 81.8614 138.97C81.1468 138.784 80.5625 138.725 80.5625 138.839C80.5625 140.763 79.2081 145.2 78.2058 146.561C77.488 147.535 76.9006 148.508 76.9006 148.722C76.9006 149.565 86.9317 148.362 92.6621 146.832C108.68 142.554 123.696 132.534 132.932 119.96C140.679 109.413 144.607 100.264 147.037 87.1057C148.021 81.7773 148.136 79.7514 147.889 72.0092C147.693 65.8454 147.269 61.5524 146.526 58.1909C145.424 53.2056 142.397 44.3374 141.825 44.4209C141.65 44.4463 140.29 45.3794 138.801 46.4945Z" fill="#00BD9E"/>
<path fill-rule="evenodd" clip-rule="evenodd" d="M122.413 23.3084C121.694 23.6043 120.426 24.5032 119.597 25.3056C117.87 26.9761 111.815 36.3086 106.463 45.55C104.452 49.0226 102.673 51.7778 102.509 51.6722C102.078 51.3969 94.7374 66.8114 91.0718 75.6871C87.0986 85.3084 81.3666 102.16 78.0405 113.999L75.4526 123.21L75.1764 136.079C74.9237 147.833 74.975 148.946 75.7696 148.936C77.0633 148.919 79.4593 145.059 80.0258 142.079C81.2505 135.636 86.4729 115.383 88.9432 107.497C94.8164 88.7485 102.434 69.8299 108.161 59.7698C108.997 58.3014 109.83 56.4847 110.012 55.7326C110.499 53.7213 114.801 46.5085 119.829 39.2729C122.257 35.7787 125.01 31.813 125.944 30.4601C127.598 28.0684 128.089 25.6156 127.327 23.5582C126.966 22.5846 124.479 22.4578 122.413 23.3084Z" fill="#007779"/>
<path fill-rule="evenodd" clip-rule="evenodd" d="M139.562 3.62486C137.971 5.40098 133.439 12.1771 129.859 18.1361C127.469 22.1121 127.254 22.7346 127.497 24.9648C127.81 27.8463 127.491 28.562 123.431 34.0768C116.959 42.8696 109.327 55.3831 110.007 56.0875C110.288 56.379 120.366 54.3878 125.814 52.965C133.173 51.0425 140.833 46.0989 143.355 41.6434C144.121 40.2905 145.423 37.4865 146.248 35.4124C148.371 30.0748 148.252 24.6511 145.783 14.0318C143.61 4.68684 143.176 3.43359 141.871 2.70971C141.069 2.26541 140.62 2.44367 139.562 3.62486Z" fill="#00DC7A"/>
<path fill-rule="evenodd" clip-rule="evenodd" d="M66.7487 0.540277C54.9745 1.8255 43.2495 6.32919 32.1293 13.8362C26.7802 17.4475 28.2366 17.8517 18.7522 10.1225C12.3198 4.88033 7.43948 1.85747 4.43826 1.2582C2.22018 0.815527 0 2.66804 0 4.96215C0 7.53638 1.84509 9.79581 6.76621 13.2456C11.9808 16.9014 19.3559 23.1091 19.3559 23.8422C19.3559 24.5997 17.2932 27.8301 13.398 33.1731C4.29179 45.6622 -0.151186 61.4858 0.717739 78.3286C1.27331 89.0893 3.52487 97.783 8.25766 107.437C17.5119 126.317 34.2046 140.463 53.9957 146.198C59.5253 147.801 66.4866 148.927 70.9369 148.938L74.6516 148.947L74.9912 143.988C75.1785 141.26 75.3312 135.521 75.3312 131.236V123.443L67.7128 100.083C63.523 87.2341 59.1177 74.137 57.9239 70.9781C54.1553 61.0079 45.9186 44.623 39.7838 34.8939C36.59 29.8289 34.0429 25.3274 34.124 24.8912C34.5399 22.6561 44.2764 16.4311 51.2435 13.9457C61.6879 10.2201 75.0963 9.35097 86.9578 11.6304C90.6156 12.3332 98.0226 14.3959 100.673 15.4498C101.935 15.951 107.765 9.72158 107.765 7.87178C107.765 6.89215 86.7658 1.24195 80.4522 0.522939C74.8007 -0.120755 72.7783 -0.118587 66.7487 0.540277ZM28.8545 33.9983C33.8954 39.8284 45.24 61.4869 50.7507 75.8004C57.9564 94.5158 64.3888 115.303 68.0424 131.678C69.3235 137.42 69.5019 138.914 68.9526 139.295C68.0272 139.935 61.7878 139.29 57.1916 138.08C41.0801 133.839 23.813 119.425 16.1549 103.825C6.69925 84.564 8.17867 56.158 19.5338 38.956C21.3726 36.1705 25.5781 31.3704 26.1797 31.3704C26.4015 31.3704 27.6052 32.5527 28.8545 33.9983Z" fill="#01CC88"/>
<path fill-rule="evenodd" clip-rule="evenodd" d="M129.999 0.326775C114.686 4.08545 108.266 6.59575 107.21 9.23662C106.879 10.0635 105.417 11.8938 103.961 13.3047C101.456 15.7321 101.239 16.165 99.9384 21.3622C98.7247 26.2078 98.6086 27.4237 98.9502 31.6863C99.1631 34.3434 99.9389 39.2464 100.674 42.5808C101.409 45.9158 102.011 49.254 102.011 49.999C102.011 50.7446 102.19 51.469 102.409 51.6088C102.628 51.7491 104.453 49.0226 106.463 45.5501C111.822 36.2978 117.871 26.974 119.597 25.3095C121.364 23.6038 123.439 22.7011 125.591 22.7011C126.888 22.7011 127.396 22.2514 128.806 19.8565C131.814 14.747 138.169 5.12414 139.496 3.66932L140.793 2.24756L139.38 1.09563C138.238 0.16531 137.302 -0.043836 134.505 0.00709596C132.602 0.0417731 130.574 0.185358 129.999 0.326775Z" fill="#8CEA78"/>
<path fill-rule="evenodd" clip-rule="evenodd" d="M63.5608 11.0062C55.2623 12.2936 50.936 13.6525 44.2718 17.0655C39.9313 19.2887 34.3683 23.5783 34.124 24.8912C34.043 25.3273 36.5901 29.8289 39.7838 34.8939C45.9369 44.6522 54.1569 61.0128 57.9549 71.0588C59.1654 74.2621 63.4901 87.1241 67.5648 99.6404C71.639 112.157 75.1319 122.398 75.326 122.398C75.5201 122.398 76.7903 118.436 78.1478 113.593C83.4346 94.7411 90.5466 75.6525 98.1315 59.9611C100.402 55.2629 102.011 51.2528 102.011 50.29C102.011 49.3846 101.409 45.9158 100.674 42.5808C99.9389 39.2464 99.1631 34.3434 98.9502 31.6863C98.607 27.4069 98.7232 26.2138 99.9656 21.2522L101.369 15.6503L96.3277 14.0524C93.5551 13.1736 89.2858 12.0666 86.8402 11.5925C80.6458 10.3918 69.3555 10.1079 63.5608 11.0062ZM131.79 50.8643C129.612 52.0574 123.966 53.5957 115.924 55.187C112.069 55.9499 110.003 56.6202 109.554 57.2536C106.812 61.1114 99.5544 77.3446 94.6699 90.5447C88.3238 107.696 80.2058 137.416 81.5011 138.758C82.3344 139.621 87.6484 138.582 94.5093 136.215C116.835 128.511 132.702 110.671 137.358 88.0425C139.575 77.2612 138.613 63.703 134.864 52.9081C134.269 51.1948 133.755 49.8034 133.721 49.8164C133.688 49.83 132.819 50.3014 131.79 50.8643Z" fill="#F8EEED"/>
</svg>
